<svg xmlns="http://www.w3.org/2000/svg" width="512" height="512" viewBox="0 0 512 512">
  <rect width="512" height="512" rx="112.64" fill="#111110"></rect>
  <line x1="256.00" y1="36.06" x2="256.00" y2="83.51" stroke="#F0ECE5" stroke-width="17.97" stroke-linecap="round" opacity="0.8"></line>
  <line x1="365.97" y1="65.52" x2="352.41" y2="89.00" stroke="#D4A030" stroke-width="11.18" stroke-linecap="round" opacity="1"></line>
  <line x1="446.48" y1="146.03" x2="423.00" y2="159.59" stroke="#F0ECE5" stroke-width="11.18" stroke-linecap="round" opacity="0.35"></line>
  <line x1="475.94" y1="256.00" x2="428.49" y2="256.00" stroke="#F0ECE5" stroke-width="17.97" stroke-linecap="round" opacity="0.8"></line>
  <line x1="446.48" y1="365.97" x2="423.00" y2="352.41" stroke="#F0ECE5" stroke-width="11.18" stroke-linecap="round" opacity="0.35"></line>
  <line x1="365.97" y1="446.48" x2="352.41" y2="423.00" stroke="#F0ECE5" stroke-width="11.18" stroke-linecap="round" opacity="0.35"></line>
  <line x1="256.00" y1="475.94" x2="256.00" y2="428.49" stroke="#F0ECE5" stroke-width="17.97" stroke-linecap="round" opacity="0.8"></line>
  <line x1="146.03" y1="446.48" x2="159.59" y2="423.00" stroke="#F0ECE5" stroke-width="11.18" stroke-linecap="round" opacity="0.35"></line>
  <line x1="65.52" y1="365.97" x2="89.00" y2="352.41" stroke="#F0ECE5" stroke-width="11.18" stroke-linecap="round" opacity="0.35"></line>
  <line x1="36.06" y1="256.00" x2="83.51" y2="256.00" stroke="#F0ECE5" stroke-width="17.97" stroke-linecap="round" opacity="0.8"></line>
  <line x1="65.52" y1="146.03" x2="89.00" y2="159.59" stroke="#F0ECE5" stroke-width="11.18" stroke-linecap="round" opacity="0.35"></line>
  <line x1="146.03" y1="65.52" x2="159.59" y2="89.00" stroke="#F0ECE5" stroke-width="11.18" stroke-linecap="round" opacity="0.35"></line>
  <circle cx="256" cy="256" r="169.47" stroke="#F0ECE5" stroke-width="39.94" fill="none"></circle>
  <line x1="256" y1="256" x2="223.80" y2="311.77" stroke="#F0ECE5" stroke-width="19.97" stroke-linecap="round" opacity="0.65"></line>
  <line x1="256" y1="256" x2="336.72" y2="209.40" stroke="#D4A030" stroke-width="16.77" stroke-linecap="round"></line>
  <circle cx="256" cy="256" r="23.96" fill="#D4A030"></circle>
</svg>